<?xml version="1.0" encoding="utf-8"?>
<svg width="197px" height="159px" viewBox="0 0 197 159" version="1.1" xmlns:xlink="http://www.w3.org/1999/xlink" xmlns="http://www.w3.org/2000/svg">
  <g id="Group-4-Copy" transform="translate(0.5 0.5)">
    <path d="M98 0L126.801 47.0438L191.204 54.5876L144.602 91.2061L155.603 142.912L98.0001 118.5L40.3973 142.912L51.3983 91.2063L4.79634 54.588L69.1983 47.0439L98 0Z" id="Star" fill="#000000" fill-rule="evenodd" stroke="#FF0000" stroke-width="1" />
    <g id="Group" transform="translate(27.15149 31.848328)">
      <g id="B" fill="#FF0000">
        <path d="M33.2487 101.346L33.2487 22.6536L25.3312 22.6536L25.3312 10.1233L48.464 10.1233Q61.3386 10.1233 68.7053 17.2791Q76.072 24.435 76.072 36.8889Q76.072 46.1091 71.9067 51.9918Q67.7414 57.8745 60.3058 58.7007L60.3058 58.9761Q68.8429 60.6295 73.6623 67.6213Q78.4816 74.6131 78.4816 84.6702Q78.4816 98.3085 70.633 106.093Q62.7844 113.877 48.3264 113.877L25.3312 113.877L25.3312 101.346L33.2487 101.346ZM47.9133 22.6536L47.9133 53.3596Q52.3884 53.2908 55.0734 52.4646Q57.7585 51.6384 59.5141 48.4026Q61.2697 45.1667 61.2697 38.282Q61.2697 29.8137 58.6879 26.2336Q56.1061 22.6536 47.9133 22.6536ZM47.9133 65.8899L47.9133 101.346Q56.0373 101.346 59.6518 97.2075Q63.2663 93.0686 63.2663 83.9635Q63.2663 75.8922 60.9599 71.8915Q58.6535 67.8908 55.6586 66.8903Q52.6637 65.8899 47.9133 65.8899Z" />
      </g>
      <g id="S" fill="#FFFFFF" transform="translate(84.26306 45.727356)">
        <path d="M9.51563 44.8047L2.17969 44.8047L2.17969 34.3516L9.51563 34.3516Q10.8281 38.6172 14.4609 38.6172Q17.0859 38.6172 17.0859 36.5078Q17.0859 35.4063 16.1719 34.6797Q15.1875 33.8828 12.0234 32.4766Q8.03906 30.6719 6.16406 29.3594Q4.40625 28.1641 3.16406 26.0547Q1.92188 23.9688 1.92188 21.4375Q1.92188 16.8906 4.875 14.3359Q7.80469 11.7813 12.0938 11.7813Q16.3828 11.7813 19.3594 14.2188L19.3594 12.2031L26.7422 12.2031L26.7422 21.4844L19.4531 21.4844Q18.1172 17.6406 14.7188 17.6406Q12.3281 17.6406 12.3281 19.6797Q12.3281 20.6641 13.0078 21.1563Q13.6641 21.6719 17.25 23.4297Q22.0547 25.8203 23.6719 26.9219Q24.4922 27.4609 25.3477 28.4336Q26.2031 29.4063 26.7656 30.4375Q28.0547 32.7344 28.0547 35.4063Q28.0547 39.5078 25.0078 42.3438Q21.9609 45.2266 17.3203 45.2266Q13.0078 45.2266 9.51563 42.6719L9.51563 44.8047Z" />
      </g>
    </g>
  </g>
</svg>